<svg xmlns="http://www.w3.org/2000/svg" width="32" height="32" fill="none" viewBox="0 0 32 32"><style>@media (prefers-color-scheme:light){path{fill:#a54c18}}</style><path fill="url(#paint0_radial_66_15454)" d="M27.7034 4.44689C28.376 3.82767 29.4418 4.39628 29.3249 5.31194L29.1162 6.94635C29.0555 7.42133 29.3363 7.87277 29.7839 8.01987L31.3241 8.52606C32.187 8.80965 32.2363 10.034 31.3992 10.3887L29.905 11.0218C29.4707 11.2058 29.2272 11.6791 29.3259 12.1474L29.6656 13.7589C29.8558 14.6617 28.8394 15.3174 28.1192 14.7565L26.8337 13.7552C26.4601 13.4642 25.9358 13.4861 25.5869 13.8073L24.3864 14.9126C23.7138 15.5318 22.6479 14.9632 22.7649 14.0476L22.9736 12.4132C23.0343 11.9382 22.7535 11.4867 22.3059 11.3396L20.7657 10.8334C19.9028 10.5499 19.8534 9.32554 20.6906 8.97084L22.1848 8.33773C22.6191 8.15373 22.8626 7.68037 22.7639 7.21205L22.4242 5.60058C22.2339 4.69777 23.2504 4.04207 23.9706 4.60303L25.2561 5.60433C25.6297 5.89532 26.154 5.87339 26.5029 5.55218L27.7034 4.44689Z"/><path fill="url(#paint1_radial_66_15454)" d="M18.8083 7.58081C18.905 7.25726 18.8334 6.90587 18.6183 6.64821L15.865 3.35014C15.3971 2.78972 14.5143 2.92347 14.2269 3.5983L12.6012 7.41531C12.435 7.80535 12.0436 8.0445 11.6275 8.01018L7.5554 7.67437C6.83546 7.615 6.30407 8.34531 6.5694 9.02946L8.07015 12.8992C8.2235 13.2946 8.11277 13.7456 7.79472 14.021L4.68213 16.7159C4.13183 17.1923 4.26316 18.0914 4.92581 18.3841L8.67388 20.0397C9.05687 20.2089 9.2917 20.6075 9.258 21.0313L8.92826 25.1783C8.86996 25.9115 9.58708 26.4526 10.2589 26.1824L14.0587 24.6541C14.447 24.4979 14.8898 24.6107 15.1602 24.9346L17.8065 28.1044C18.2743 28.6648 19.1571 28.5311 19.4446 27.8562L21.0703 24.0392C21.2364 23.6492 21.6278 23.41 22.0439 23.4444L26.116 23.7802C26.836 23.8395 27.3673 23.1092 27.102 22.4251L25.5105 18.3214C25.4054 18.0503 25.1887 17.8399 24.9178 17.746L23.0116 17.0848C22.4502 16.89 21.8544 17.2528 21.621 17.8081C20.9339 19.4427 19.4549 20.687 17.6012 20.9678C14.7592 21.3984 12.1126 19.4011 11.6898 16.5068C11.2671 13.6126 13.2282 10.9173 16.0702 10.4867C16.3953 10.4375 16.7178 10.42 17.0348 10.432C17.5412 10.4512 18.0363 10.1652 18.1838 9.67147L18.8083 7.58081Z"/><path fill="url(#paint2_radial_66_15454)" d="M4.98329 12.1681C4.98329 13.5695 3.86774 14.7056 2.49165 14.7056C1.11555 14.7056 0 13.5695 0 12.1681C0 10.7667 1.11555 9.63061 2.49165 9.63061C3.86774 9.63061 4.98329 10.7667 4.98329 12.1681Z"/><defs><radialGradient id="paint0_radial_66_15454" cx="0" cy="0" r="1" gradientTransform="translate(10.0215 6.58638) rotate(45.4792) scale(24.5366 24.5332)" gradientUnits="userSpaceOnUse"><stop stop-color="#D5F3FF" style="stop-color:color(display-p3 .8338 .9529 1);stop-opacity:1"/><stop offset="1" stop-color="#FFE8F9" style="stop-color:color(display-p3 1 .9085 .9756);stop-opacity:1"/></radialGradient><radialGradient id="paint1_radial_66_15454" cx="0" cy="0" r="1" gradientTransform="translate(10.0215 6.58638) rotate(45.4792) scale(24.5366 24.5332)" gradientUnits="userSpaceOnUse"><stop stop-color="#D5F3FF" style="stop-color:color(display-p3 .8338 .9529 1);stop-opacity:1"/><stop offset="1" stop-color="#FFE8F9" style="stop-color:color(display-p3 1 .9085 .9756);stop-opacity:1"/></radialGradient><radialGradient id="paint2_radial_66_15454" cx="0" cy="0" r="1" gradientTransform="translate(10.0215 6.58638) rotate(45.4792) scale(24.5366 24.5332)" gradientUnits="userSpaceOnUse"><stop stop-color="#D5F3FF" style="stop-color:color(display-p3 .8338 .9529 1);stop-opacity:1"/><stop offset="1" stop-color="#FFE8F9" style="stop-color:color(display-p3 1 .9085 .9756);stop-opacity:1"/></radialGradient></defs></svg>