<svg xmlns="http://www.w3.org/2000/svg" width="345" height="270" fill="none" viewBox="0 0 345 270"><path fill="#A54C18" d="M298.677 15.3474C305.929 8.77923 317.42 14.8105 316.159 24.523L313.909 41.8595C313.255 46.8977 316.282 51.6861 321.108 53.2465L337.713 58.6157C347.016 61.6238 347.548 74.6102 338.523 78.3725L322.413 85.0881C317.731 87.0397 315.106 92.0607 316.17 97.0283L319.832 114.121C321.883 123.698 310.925 130.653 303.16 124.703L289.301 114.082C285.273 110.995 279.621 111.228 275.859 114.635L262.916 126.359C255.664 132.927 244.173 126.896 245.434 117.183L247.684 99.8466C248.338 94.8084 245.311 90.02 240.485 88.4596L223.88 83.0904C214.577 80.0824 214.045 67.0959 223.07 63.3336L239.18 56.618C243.862 54.6664 246.487 49.6454 245.423 44.6779L241.761 27.5847C239.71 18.0085 250.668 11.0534 258.433 17.0036L272.292 27.6245C276.32 30.7111 281.972 30.4784 285.734 27.0713L298.677 15.3474Z"/><path fill="#A54C18" d="M202.777 48.5893C203.819 45.1574 203.047 41.4301 200.728 38.6971L171.044 3.71397C166 -2.23046 156.482 -0.811814 153.383 6.34625L135.856 46.8339C134.065 50.971 129.845 53.5077 125.359 53.1437L81.4567 49.5817C73.6948 48.952 67.9658 56.6985 70.8263 63.9554L87.0063 105.002C88.6596 109.196 87.4658 113.98 84.0368 116.901L50.4792 145.486C44.5463 150.54 45.9622 160.077 53.1063 163.181L93.5152 180.743C97.6444 182.537 100.176 186.765 99.8128 191.26L96.2578 235.248C95.6292 243.025 103.361 248.765 110.603 245.899L151.57 229.688C155.756 228.031 160.531 229.227 163.446 232.663L191.976 266.286C197.02 272.23 206.538 270.812 209.637 263.654L227.164 223.166C228.955 219.029 233.175 216.492 237.661 216.856L281.563 220.418C289.325 221.048 295.054 213.302 292.194 206.045L275.036 162.516C273.902 159.641 271.566 157.409 268.645 156.413L248.094 149.399C242.041 147.333 235.618 151.181 233.101 157.071C225.693 174.41 209.748 187.608 189.763 190.587C159.123 195.154 130.589 173.969 126.031 143.269C121.473 112.569 142.617 83.9798 173.257 79.413C176.762 78.8906 180.239 78.7052 183.656 78.8324C189.116 79.0356 194.454 76.0023 196.044 70.7652L202.777 48.5893Z"/><path fill="#A54C18" d="M53.7261 97.2472C53.7261 112.112 41.6991 124.163 26.8631 124.163C12.027 124.163 0 112.112 0 97.2472C0 82.3823 12.027 70.3318 26.8631 70.3318C41.6991 70.3318 53.7261 82.3823 53.7261 97.2472Z"/></svg>