<svg width="122" height="131" viewBox="0 0 122 131" fill="none" xmlns="http://www.w3.org/2000/svg">
<path fill-rule="evenodd" clip-rule="evenodd" d="M57.2598 1.91422C55.4145 -0.396685 51.7862 0.0245543 50.5195 2.69677L37.4355 30.2986C36.8656 31.5009 35.7352 32.341 34.4197 32.5402L4.21789 37.1117C1.29395 37.5543 -0.155373 40.9071 1.52549 43.3402L18.8874 68.4722C19.6436 69.5669 19.806 70.9659 19.3207 72.2048L8.17888 100.646C7.10021 103.4 9.27915 106.331 12.2267 106.092L42.6726 103.622C43.9987 103.515 45.2915 104.073 46.1218 105.113L65.1817 128.983C67.027 131.294 70.6553 130.873 71.922 128.2L85.006 100.599C85.5759 99.3963 86.7063 98.5561 88.0218 98.357L118.224 93.7854C121.148 93.3428 122.597 89.99 120.916 87.5569L103.554 62.425C102.798 61.3303 102.635 59.9312 103.121 58.6924L114.263 30.2511C115.341 27.4976 113.162 24.566 110.215 24.8051L79.7689 27.275C78.4428 27.3826 77.15 26.8237 76.3197 25.784L57.2598 1.91422ZM64.104 90.2818C77.819 88.6894 87.6463 76.2803 86.0539 62.5654C84.4616 48.8504 72.0525 39.023 58.3375 40.6154C44.6225 42.2077 34.7952 54.6168 36.3876 68.3318C37.9799 82.0468 50.389 91.8741 64.104 90.2818Z" fill="black" style="fill:black;fill-opacity:1;"/>
</svg>
